<svg height="511pt" viewBox="0 -65 511.987 511" width="511pt" xmlns="http://www.w3.org/2000/svg"><path d="M506.434 113.219c-.121-.207-.41-.61-.676-.973-.067-.105-.117-.207-.188-.3l-.066-.079-.078-.101-.238-.325C479.785 79.187 389.227 19.648 334.878 5.227c-46.32-12.32-70.05 2.195-80.042 11.949a25.337 25.337 0 00-7.484 18.113v15.992l-17.73 9.14c-21.157-18.1-33.47-34.901-33.47-46.608a8.33 8.33 0 00-.648-3.2 8.729 8.729 0 00-.59-.965 8.547 8.547 0 00-1.125-1.707 7.836 7.836 0 00-1.008-.785 8.409 8.409 0 00-1.543-1.039 9.69 9.69 0 00-1.316-.41 8.847 8.847 0 00-1.34-.41c-.168 0-.34.05-.512 0-.168-.05-.289-.02-.449-.02-.316.047-.629.11-.941.188a8.712 8.712 0 00-1.817.367c-.972.375-1.883.898-2.695 1.555-.363.312-.7.652-1.008 1.015-.363.438-.68.914-.95 1.418-.237.43-.433.88-.585 1.348-.086.254-.258.46-.324.723-.395 1.707-1.211 5.453-2.168 10.472-5.375 14.172-22.684 32.758-48.899 51.832a42.296 42.296 0 00-17.414 34.082c.059 4.254.77 8.473 2.118 12.508L4.496 176.902c-.156.075-.258.223-.41.305-.332.223-.652.461-.957.719-.496.394-.95.84-1.348 1.332a7.47 7.47 0 00-.648.98 7.723 7.723 0 00-.762 1.758 8.073 8.073 0 00-.297 1.094 8.617 8.617 0 000 2.242c-.015.238-.015.48 0 .719l25.414 135.754v33.34c0 14.14 11.461 25.601 25.598 25.601h337.332c11.133.031 21-7.164 24.371-17.773 11.742-36.696 53.145-160.66 93.012-213.266a31.215 31.215 0 00.734-36.277c-.031-.07-.062-.145-.101-.211zM330.492 21.715c41.293 10.965 103.988 49.969 139.301 79.172a32.35 32.35 0 00-11.316 6.656 190.612 190.612 0 00-40.457 54.793c-15.282-30.04-55.961-86.008-153.602-112.395V39.875a221.552 221.552 0 01122.445 48.68 8.534 8.534 0 0011.094-12.953 237.339 237.339 0 00-123.543-51.848c10.024-5.574 27.399-9.652 56.078-2.04zM222.887 77.129l.144.121a338.424 338.424 0 0013.938 10.742 25 25 0 01-14.617 45.285h-15.864c-20.386-10.074-19.715-55.156-15.508-88.64a177.339 177.339 0 0031.907 32.492zM138.27 87.992A257.7 257.7 0 00172.19 58.98c-2.003 25.438-1.05 55.211 10.547 74.239h-29.867a25.002 25.002 0 01-14.617-45.285zm-17.012 47.711a41.818 41.818 0 0031.633 14.645h69.46c18.243.004 34.415-11.75 40.032-29.11 5.62-17.355-.594-36.36-15.38-47.043-.972-.71-1.815-1.41-2.765-2.11l12.68-6.534c101.547 26.394 137.832 85.863 148.789 110.394H43.477zM18.66 193.012h387.754L370.95 306.504a8.533 8.533 0 01-8.148 5.976H41.1zm473.473-53.606c-41.473 54.766-83.68 180.992-95.633 218.367a8.48 8.48 0 01-8.117 5.907H51.086a8.533 8.533 0 01-8.531-8.535v-25.598H362.8a25.486 25.486 0 0024.437-17.922l38.871-124.406a167.074 167.074 0 0143.852-67.012 14.792 14.792 0 0111.547-3.863 14.801 14.801 0 0110.539 6.097l.078.11c.04.07.11.12.152.191a13.846 13.846 0 01-.113 16.664zm0 0"/><path d="M76.688 210.078c-14.141 0-25.602 11.461-25.602 25.602 0 14.136 11.46 25.597 25.602 25.597 14.136 0 25.597-11.46 25.597-25.597 0-14.14-11.46-25.602-25.597-25.602zm0 34.133a8.533 8.533 0 110-17.066c4.71 0 8.53 3.82 8.53 8.535 0 4.71-3.82 8.53-8.53 8.53zm0 0M162.02 210.078c-23.563 0-42.668 19.102-42.668 42.668 0 23.563 19.105 42.668 42.668 42.668s42.667-19.105 42.667-42.668c-.03-23.555-19.117-42.64-42.667-42.668zm0 68.27c-14.137 0-25.602-11.465-25.602-25.602 0-14.14 11.465-25.601 25.602-25.601s25.601 11.46 25.601 25.601c0 14.137-11.465 25.602-25.601 25.602zm0 0M255.887 210.078c-14.14 0-25.602 11.461-25.602 25.602 0 14.136 11.461 25.597 25.602 25.597 14.136 0 25.601-11.46 25.601-25.597 0-14.14-11.465-25.602-25.601-25.602zm0 34.133a8.533 8.533 0 110-17.066c4.71 0 8.531 3.82 8.531 8.535 0 4.71-3.82 8.53-8.531 8.53zm0 0M324.152 235.68c-18.851 0-34.132 15.28-34.132 34.132s15.28 34.133 34.132 34.133c18.852 0 34.133-15.28 34.133-34.132s-15.281-34.133-34.133-34.133zm0 51.199c-9.425 0-17.066-7.64-17.066-17.066s7.64-17.067 17.066-17.067c9.426 0 17.067 7.64 17.067 17.066s-7.64 17.067-17.067 17.067zm0 0M99.813 280.82a8.533 8.533 0 00-9.301-1.793 8.008 8.008 0 00-2.817 1.793 9.814 9.814 0 00-1.793 2.817 7.194 7.194 0 00-.683 3.242 8.528 8.528 0 005.261 7.93 8.53 8.53 0 009.332-1.871c.34-.426.684-.852 1.024-1.364a8.996 8.996 0 001.27-3.074c.109-.535.167-1.078.18-1.621a8.577 8.577 0 00-.68-3.242 9.814 9.814 0 00-1.793-2.817zm0 0M244.879 280.813a8.533 8.533 0 00-9.3-1.793 7.953 7.953 0 00-2.817 1.792 9.814 9.814 0 00-1.793 2.817 7.135 7.135 0 00-.684 3.25 8.528 8.528 0 005.262 7.93 8.53 8.53 0 009.332-1.872c.34-.425.684-.851 1.023-1.363a9.082 9.082 0 001.274-3.074 9.441 9.441 0 00.176-1.621 8.503 8.503 0 00-.68-3.242 9.906 9.906 0 00-1.793-2.825zm0 0M372.879 224.664c.34-.43.683-.855 1.023-1.367a9.062 9.062 0 001.274-3.07 9.352 9.352 0 00.176-1.614 8.472 8.472 0 00-.68-3.242 9.814 9.814 0 00-1.793-2.816 8.533 8.533 0 00-9.3-1.793 7.953 7.953 0 00-2.817 1.793 9.814 9.814 0 00-1.793 2.816 7.194 7.194 0 00-.684 3.242c-.02 3.465 2.059 6.602 5.262 7.93s6.89.59 9.332-1.871zm0 0"/></svg>