<svg height="512pt" viewBox="0 0 512.218 512" width="512pt" xmlns="http://www.w3.org/2000/svg"><path d="M481.453 172.156c16.406-.168 29.856-13.062 30.719-29.445a27 27 0 00-7.809-20.617 26.194 26.194 0 00-13.574-7.059 26.373 26.373 0 00-7.059-13.586 27.024 27.024 0 00-20.617-7.797 30.628 30.628 0 00-20.324 9.07 29.994 29.994 0 00-7.273 31.387l-11.024 11.024a57.864 57.864 0 00-24.594 8.09c-3.3 1.808-6.527 3.761-9.753 5.707-4.172 2.562-8.235 4.96-12.356 7.023 1.512-4.445 2.918-8.832 4.035-12.969a92.509 92.509 0 002.766-44.375 86.544 86.544 0 00-7.68-21.843l7.297-15.106c.18 0 .36.043.535.043a30.151 30.151 0 0026.738-17.332c7.38-14.2 1.872-31.691-12.316-39.098a26.439 26.439 0 00-15.172-2.175 26.384 26.384 0 00-11.094-10.489c-14.625-6.488-31.746.09-38.261 14.703a29.956 29.956 0 003.488 32.016l-6.738 13.988a57.389 57.389 0 00-20.63 15.786c-2.558 2.816-4.921 5.726-7.312 8.636a87.036 87.036 0 01-18.773 18.696 131.332 131.332 0 01-33.988 13.918l-2.72.855c-55.222 16.93-63.804 44.629-59.66 66.984a146.253 146.253 0 00-27.218 22.317c-26.516 27.75-40.672 67.941-40.672 113.738h-.953c-.402 0-.797.05-1.195.063-3.52-13.88-15.348-24.075-29.594-25.5a34.026 34.026 0 00-34.067 19.117 33.751 33.751 0 00-11.945-2.211 33.808 33.808 0 00-29.867 50.234 33.855 33.855 0 00-3.574 49.723 25.487 25.487 0 00-7.688 28.316 25.488 25.488 0 0024.063 16.793h.683c4.235 29.364 29.383 51.164 59.047 51.2H426.66c29.668-.036 54.813-21.836 59.05-51.2h.685a25.498 25.498 0 0024.023-16.676 25.494 25.494 0 00-7.461-28.277 46.75 46.75 0 00-21.07-71.312 154.613 154.613 0 00-3.012-25.32 173.23 173.23 0 00-35.84-73.473 86.491 86.491 0 0016.895-63.59l11.777-11.774a28.058 28.058 0 009.746 1.797zM454.82 114.79a13.646 13.646 0 019.035-4.09 10.317 10.317 0 017.793 2.828 10.09 10.09 0 012.688 8.453c.004.34.027.68.074 1.016-.047.332-.07.664-.074 1 0 .238.168.434.21.664.122.55.298 1.082.524 1.598.352.992.938 1.89 1.707 2.61.391.429.832.808 1.313 1.136.422.273.87.504 1.34.691a8.15 8.15 0 001.707.555c.238.043.426.188.672.223.328-.012.652-.043.972-.086.344.05.688.078 1.035.086a9.71 9.71 0 0111.297 10.469 13.653 13.653 0 01-4.086 9.054 12.318 12.318 0 01-15.863 2.106c-.23-.168-.496-.204-.734-.348a8.342 8.342 0 00-1.922-.914 7.731 7.731 0 00-1.227-.238 8.557 8.557 0 00-1.922-.102c-.468.05-.933.145-1.39.273a7.884 7.884 0 00-1.645.57c-.765.505-1.527 1.012-2.289 1.52l-9.812 9.84a39.082 39.082 0 00-6.118-8.918 33.722 33.722 0 00-4.918-4.215l8.79-8.793c.214-.27.406-.554.582-.851a7.87 7.87 0 00.937-1.406c.25-.532.441-1.086.574-1.657a8.32 8.32 0 00.27-1.383 8.57 8.57 0 00-.102-1.921 7.741 7.741 0 00-.238-1.235 8.472 8.472 0 00-.887-1.93c-.144-.238-.18-.503-.351-.734a12.333 12.333 0 012.058-15.87zM349.988 24.727c2.508-6.043 9.344-9.024 15.48-6.75a10.138 10.138 0 015.325 7.109c.117.312.254.617.41.914.059.332.14.66.246.98.11.223.309.352.434.563.3.488.648.941 1.043 1.355a8.14 8.14 0 001.16 1.102c.43.313.89.582 1.375.805.484.25.996.449 1.527.597.5.121 1.012.196 1.528.22.586.05 1.18.034 1.765-.044.227.016.453.016.684 0 .312-.117.617-.254.91-.406.332-.063.656-.145.973-.25a10.148 10.148 0 018.894-.254c5.598 3.379 7.524 10.582 4.36 16.305a12.34 12.34 0 01-14.293 7.23c-.258-.086-.504 0-.762-.086a8.22 8.22 0 00-2.14-.238 9.08 9.08 0 00-1.262.176 8.477 8.477 0 00-1.829.539c-.43.207-.843.445-1.234.718a7.968 7.968 0 00-1.352 1.075 7.85 7.85 0 00-1.046 1.383c-.223.257-.43.527-.618.808l-6.046 12.535a41.046 41.046 0 00-8.73-6.449 34.235 34.235 0 00-5.974-2.348l5.36-11.136c.101-.317.183-.637.246-.965a6.918 6.918 0 00.445-3.41 8.82 8.82 0 00-.215-1.47 7.989 7.989 0 00-.718-1.706 8.412 8.412 0 00-.637-1.11 8.652 8.652 0 00-1.52-1.527c-.207-.164-.316-.394-.539-.547a12.321 12.321 0 01-3.25-15.718zm-97.035 112.777l2.715-.852a144.798 144.798 0 0038.34-15.957 101.442 101.442 0 0022.57-22.113c2.23-2.73 4.473-5.453 6.828-8.098a35.283 35.283 0 0116.215-11.945 12.499 12.499 0 019.274 1.27 25.914 25.914 0 016.828 5.437 31.968 31.968 0 013.789 5.121c.144.332.312.656.504.973a65.832 65.832 0 017.804 20.648 75.394 75.394 0 01-2.507 36.532 224.039 224.039 0 01-8.028 23.476c-8.367.79-16.781.93-25.168.426a178.349 178.349 0 00-127.812 6.828c-.102-11.742 7.066-28.996 48.648-41.746zM85.324 315.714a16.947 16.947 0 0115.781 10.845 76.372 76.372 0 00-26.359 12.195 33.19 33.19 0 00-5.879-10.496 16.857 16.857 0 0116.457-12.543zM42.66 332.782a17.052 17.052 0 0111.492 4.516 16.722 16.722 0 015.575 12.55l-.079 1.5a13.218 13.218 0 01-.453 2.239 77.034 77.034 0 00-7.918 12.254 7.023 7.023 0 00-.316.672 76.202 76.202 0 00-8.3 34.535v8.535h-8.536a17.068 17.068 0 01-5.973-33.035c.078 0 .13-.094.215-.125.43-.215.84-.465 1.227-.754a8.63 8.63 0 001.664-1.184c.078-.078.18-.101.258-.187.234-.32.437-.66.613-1.016.367-.48.68-1 .93-1.547.18-.504.312-1.027.394-1.558.129-.531.211-1.07.238-1.613a9.05 9.05 0 00-.265-1.77 7.616 7.616 0 00-.188-1.184c0-.113-.129-.18-.172-.28a8.392 8.392 0 00-.851-1.462 8.187 8.187 0 00-.988-1.355c-.086-.086-.114-.196-.2-.274a16.598 16.598 0 01-5.433-12.39c0-9.426 7.64-17.067 17.066-17.067zm384 162.133H85.324a42.481 42.481 0 01-8.105-.851c-.852-.172-1.707-.461-2.516-.684a44.069 44.069 0 01-5.121-1.578c-.937-.375-1.824-.856-2.73-1.281a43.002 43.002 0 01-4.215-2.286 72.456 72.456 0 01-2.563-1.785 41.584 41.584 0 01-3.597-2.969c-.77-.699-1.52-1.417-2.23-2.175a44.977 44.977 0 01-3.02-3.653c-.598-.812-1.227-1.597-1.766-2.441a43.291 43.291 0 01-2.465-4.523c-.387-.793-.855-1.543-1.172-2.364a42.688 42.688 0 01-2.21-7.11c0-.151-.102-.288-.134-.44h424.993c-4.075 19.855-21.543 34.117-41.813 34.14zm59.735-51.2H25.594a8.534 8.534 0 110-17.066h460.8c4.711 0 8.532 3.82 8.532 8.532a8.533 8.533 0 01-8.531 8.535zm8.53-55.468a29.213 29.213 0 01-9.292 21.336h-16.145a152.193 152.193 0 0011.88-46.379 29.672 29.672 0 0113.558 25.043zm-30.034-42.41a134.658 134.658 0 01-14.184 63.746H59.727v-8.535c.039-32.973 26.757-59.695 59.734-59.735h1.594a229.446 229.446 0 003.601 27.31 8.539 8.539 0 0010.07 6.655 8.535 8.535 0 006.665-10.07 207.225 207.225 0 01-3.934-32.8c-1.785-44.852 11.016-83.954 35.957-110.134a136.045 136.045 0 01100.738-41.53 50.367 50.367 0 00-12.656 8.679 47.772 47.772 0 00-14.035 35.976 131.334 131.334 0 0022.969 77.825 62.106 62.106 0 0051.406 27.851h1.254c42.418-.793 85.597-41.472 109.45-71.226a154.852 154.852 0 0129.616 62.777 138.046 138.046 0 012.735 23.21zm-22.02-142.762a74.688 74.688 0 01-14.387 33.649c-20.144 29.5-66.68 76.55-105.71 77.285h-.91a45.384 45.384 0 01-37.712-20.942 114.25 114.25 0 01-19.625-67.668 31.031 31.031 0 018.79-23.671c8.687-8.348 24.027-12.57 45.66-12.57 2.289 0 4.66.05 7.082.144l2.375.094c.773 0 1.558.042 2.328.078h.425a137.683 137.683 0 0039.176-2.508 103.511 103.511 0 0028.614-13.45c3.011-1.82 6.043-3.652 9.14-5.359 16.852-9.258 23.235-6.254 27.613-1.629a23.658 23.658 0 014.59 7.285 59.502 59.502 0 012.551 29.262zm0 0"/><path d="M190.227 224.348c-1.153 1.144-28.102 28.816-28.102 91.367 0 4.71 3.82 8.531 8.535 8.531 4.711 0 8.531-3.82 8.531-8.531 0-54.555 22.606-78.781 23.137-79.36 3.223-3.359 3.164-8.683-.137-11.964a8.538 8.538 0 00-11.964-.07zm0 0M170.66 341.313a8.534 8.534 0 00-8.535 8.535v8.535c0 4.71 3.82 8.531 8.535 8.531 4.711 0 8.531-3.82 8.531-8.531v-8.535a8.533 8.533 0 00-8.53-8.535zm0 0"/></svg>