<svg height="511pt" viewBox="0 -65 511.98712 511" width="511pt" xmlns="http://www.w3.org/2000/svg"><path d="m506.433594 113.21875c-.121094-.207031-.410156-.609375-.675782-.972656-.066406-.105469-.117187-.207032-.1875-.300782l-.066406-.078124-.078125-.101563-.238281-.324219c-25.402344-32.253906-115.960938-91.792968-170.308594-106.214844-46.320312-12.320312-70.050781 2.195313-80.042968 11.949219-4.824219 4.789063-7.519532 11.316407-7.484376 18.113281v15.992188l-17.730468 9.140625c-21.15625-18.101563-33.46875-34.902344-33.46875-46.609375-.003906-1.097656-.222656-2.1875-.648438-3.199219-.175781-.332031-.371094-.65625-.589844-.964843-.304687-.613282-.683593-1.183594-1.125-1.707032-.3125-.289062-.652343-.550781-1.007812-.785156-.472656-.402344-.992188-.75-1.542969-1.039062-.429687-.167969-.867187-.304688-1.316406-.410157-.433594-.171875-.882813-.308593-1.339844-.410156-.167969 0-.339843.050781-.511719 0-.167968-.050781-.289062-.019531-.449218-.019531-.316406.046875-.628906.109375-.941406.1875-.617188.058594-1.226563.179687-1.816407.367187-.972656.375-1.882812.898438-2.695312 1.554688-.363281.3125-.699219.652343-1.007813 1.015625-.363281.4375-.679687.914062-.949218 1.417968-.238282.429688-.433594.878907-.585938 1.347657-.085938.253906-.257812.460937-.324219.722656-.394531 1.707031-1.210937 5.453125-2.167969 10.472656-5.375 14.171875-22.683593 32.757813-48.898437 51.832031-10.90625 7.933594-17.375 20.59375-17.414063 34.082032.058594 4.253906.769532 8.472656 2.117188 12.507812l-108.441406 56.117188c-.15625.074218-.257813.222656-.410156.304687-.332032.222657-.652344.460938-.957032.71875-.496094.394531-.949218.839844-1.347656 1.332031-.242188.308594-.457031.636719-.648438.980469-.324218.550781-.582031 1.140625-.761718 1.757813-.125.355468-.222656.722656-.2968752 1.09375-.0976563.742187-.0976563 1.496094 0 2.242187-.015625.238281-.015625.480469 0 .71875l25.4140622 135.753907v33.339843c0 14.140625 11.460938 25.601563 25.597657 25.601563h337.332031c11.132812.03125 21-7.164063 24.371093-17.773438 11.742188-36.695312 53.144532-160.660156 93.011719-213.265625 7.96875-10.695312 8.265625-25.269531.734375-36.277343-.03125-.070313-.0625-.144532-.101562-.210938zm-175.941406-91.503906c41.292968 10.964844 103.988281 49.96875 139.300781 79.171875-4.1875 1.421875-8.039063 3.6875-11.316407 6.65625-16.664062 15.6875-30.371093 34.246093-40.457031 54.792969-15.28125-30.039063-55.960937-86.007813-153.601562-112.394532v-10.066406c44.808593 3.433594 87.511719 20.410156 122.445312 48.679688 3.597657 2.851562 8.800781 2.351562 11.785157-1.132813 2.984374-3.484375 2.679687-8.707031-.691407-11.820313-35.347656-28.789062-78.238281-46.789062-123.542969-51.847656 10.023438-5.574218 27.398438-9.652344 56.078126-2.039062zm-107.605469 55.414062.144531.121094c4.679688 3.804688 9.386719 7.421875 13.9375 10.742188 8.800781 6.34375 12.507812 17.640624 9.175781 27.964843s-12.945312 17.320313-23.792969 17.320313h-15.863281c-20.386719-10.074219-19.714843-55.15625-15.507812-88.640625 9.195312 12.15625 19.917969 23.078125 31.90625 32.492187zm-84.617188 10.863282c12.125-8.671876 23.476563-18.378907 33.921875-29.011719-2.003906 25.4375-1.050781 55.210937 10.546875 74.238281h-29.867187c-10.847656 0-20.460938-6.996094-23.792969-17.320312-3.332031-10.328126.375-21.621094 9.175781-27.964844zm-17.011719 47.710937c7.910157 9.253906 19.457032 14.597656 31.632813 14.644531h69.460937c18.242188.003906 34.414063-11.75 40.03125-29.109375 5.621094-17.355469-.59375-36.359375-15.378906-47.042969-.972656-.710937-1.816406-1.410156-2.765625-2.109374l12.679688-6.535157c101.546875 26.394531 137.832031 85.863281 148.789062 110.394531h-362.230469zm-102.597656 57.308594h387.753906l-35.464843 113.492187c-1.117188 3.558594-4.417969 5.980469-8.148438 5.976563h-321.699219zm473.472656-53.605469c-41.472656 54.765625-83.679687 180.992188-95.632812 218.367188-1.125 3.53125-4.410156 5.921874-8.117188 5.90625h-337.296874c-4.710938 0-8.53125-3.820313-8.53125-8.535157v-25.597656h320.246093c11.199219.042969 21.113281-7.226563 24.4375-17.921875l38.871094-124.40625c8.96875-25.5625 24.019531-48.5625 43.851563-67.011719 3.117187-2.886719 7.324218-4.292969 11.546874-3.863281 4.226563.425781 8.0625 2.648438 10.539063 6.097656l.078125.109375c.039062.070313.109375.121094.152344.191407 3.683594 4.957031 3.636718 11.753906-.113282 16.664062zm0 0"/><path d="m76.6875 210.078125c-14.140625 0-25.601562 11.460937-25.601562 25.601563 0 14.136718 11.460937 25.597656 25.601562 25.597656 14.136719 0 25.597656-11.460938 25.597656-25.597656 0-14.140626-11.460937-25.601563-25.597656-25.601563zm0 34.132813c-4.714844 0-8.535156-3.820313-8.535156-8.53125 0-4.714844 3.820312-8.535157 8.535156-8.535157 4.710938 0 8.53125 3.820313 8.53125 8.535157 0 4.710937-3.820312 8.53125-8.53125 8.53125zm0 0"/><path d="m162.019531 210.078125c-23.5625 0-42.667969 19.101563-42.667969 42.667969 0 23.5625 19.105469 42.667968 42.667969 42.667968s42.667969-19.105468 42.667969-42.667968c-.03125-23.554688-19.117188-42.640625-42.667969-42.667969zm0 68.269531c-14.136719 0-25.601562-11.464844-25.601562-25.601562 0-14.140625 11.464843-25.601563 25.601562-25.601563s25.601563 11.460938 25.601563 25.601563c0 14.136718-11.464844 25.601562-25.601563 25.601562zm0 0"/><path d="m255.886719 210.078125c-14.140625 0-25.601563 11.460937-25.601563 25.601563 0 14.136718 11.460938 25.597656 25.601563 25.597656 14.136719 0 25.601562-11.460938 25.601562-25.597656 0-14.140626-11.464843-25.601563-25.601562-25.601563zm0 34.132813c-4.714844 0-8.535157-3.820313-8.535157-8.53125 0-4.714844 3.820313-8.535157 8.535157-8.535157 4.710937 0 8.53125 3.820313 8.53125 8.535157 0 4.710937-3.820313 8.53125-8.53125 8.53125zm0 0"/><path d="m324.152344 235.679688c-18.851563 0-34.132813 15.28125-34.132813 34.132812s15.28125 34.132812 34.132813 34.132812c18.851562 0 34.132812-15.28125 34.132812-34.132812s-15.28125-34.132812-34.132812-34.132812zm0 51.199218c-9.425782 0-17.066406-7.640625-17.066406-17.066406s7.640624-17.066406 17.066406-17.066406c9.425781 0 17.066406 7.640625 17.066406 17.066406s-7.640625 17.066406-17.066406 17.066406zm0 0"/><path d="m99.8125 280.820312c-2.453125-2.421874-6.125-3.128906-9.300781-1.792968-1.054688.394531-2.015625 1.003906-2.816407 1.792968-.753906.828126-1.359374 1.78125-1.792968 2.816407-.476563 1.011719-.710938 2.121093-.683594 3.242187-.019531 3.46875 2.058594 6.601563 5.261719 7.929688 3.203125 1.332031 6.890625.589844 9.332031-1.871094.339844-.425781.683594-.851562 1.023438-1.363281.609374-.9375 1.042968-1.980469 1.269531-3.074219.109375-.535156.167969-1.078125.179687-1.621094-.011718-1.113281-.246094-2.214844-.679687-3.242187-.433594-1.035157-1.039063-1.988281-1.792969-2.816407zm0 0"/><path d="m244.878906 280.8125c-2.453125-2.421875-6.125-3.128906-9.300781-1.792969-1.054687.390625-2.015625 1.003907-2.816406 1.792969-.753907.828125-1.359375 1.78125-1.792969 2.816406-.480469 1.015625-.714844 2.128906-.683594 3.25-.019531 3.46875 2.058594 6.601563 5.261719 7.929688 3.203125 1.332031 6.890625.589844 9.332031-1.871094.339844-.425781.683594-.851562 1.023438-1.363281.609375-.9375 1.042968-1.980469 1.273437-3.074219.105469-.535156.164063-1.078125.175781-1.621094-.011718-1.113281-.242187-2.214844-.679687-3.242187-.433594-1.035157-1.039063-1.992188-1.792969-2.824219zm0 0"/><path d="m372.878906 224.664062c.339844-.429687.683594-.855468 1.023438-1.367187.609375-.9375 1.042968-1.976563 1.273437-3.070313.105469-.53125.164063-1.074218.175781-1.613281-.011718-1.117187-.242187-2.21875-.679687-3.242187-.433594-1.035156-1.039063-1.988282-1.792969-2.816406-2.453125-2.421876-6.125-3.128907-9.300781-1.792969-1.054687.390625-2.015625 1.003906-2.816406 1.792969-.753907.828124-1.359375 1.78125-1.792969 2.816406-.476562 1.011718-.710938 2.121094-.683594 3.242187-.019531 3.464844 2.058594 6.601563 5.261719 7.929688s6.890625.589843 9.332031-1.871094zm0 0"/></svg>